<svg xmlns="http://www.w3.org/2000/svg" width="150" height="150" viewBox="0 0 150 150">
    <g fill="none" fill-rule="evenodd">
        <path fill="#FFC300" d="M102.985 62.217c0 18.367-14.937 33.255-33.363 33.255-18.427 0-33.363-14.888-33.363-33.255 0-18.367 14.936-33.255 33.363-33.255 18.426 0 33.363 14.888 33.363 33.255" transform="translate(5 13.75)" />
        <path fill="#F6A11D" d="M42.858 55.163c0-7.023 2.19-13.535 5.92-18.903-7.63 6.094-12.52 15.454-12.52 25.957 0 18.367 14.937 33.256 33.363 33.256 11.38 0 21.423-5.683 27.444-14.352-5.71 4.563-12.954 7.297-20.844 7.297-18.426 0-33.363-14.888-33.363-33.255" transform="translate(5 13.75)" />
        <path fill="#CED2ED" d="M104.572 110.503c0 2.184-15.648 3.955-34.95 3.955-19.303 0-34.953-1.771-34.953-3.955 0-2.183 15.65-3.954 34.953-3.954 19.302 0 34.95 1.77 34.95 3.954" transform="translate(5 13.75)" />
        <path fill="#FFC300" d="M29.534 76.087c-3.18 2.732-12.646 2.572-18.694-5.074C4.793 63.367 1.545 56.016.73 51.043c-.815-4.97-1.345-7.51.642-8.192 1.986-.682 3.43 5.857 4.357 8.13.928 2.274 2.929 5.604 3.392 5.415.818-.336-1.442-5.453-2.923-9.589s-2.45-10.07.017-11.925c2.465-1.855 5.02 7.533 6.292 10.99 1.22 3.321 2.335 7.346 2.868 6.814.442-.443.474-2.877-1.63-8.435-1.813-4.786-2.267-9.94.256-10.625 2.45-.666 4.177 7.307 6.218 10.86 5.664 9.856 11.01 13.502 12.052 18.626 1.042 5.123.908 9.841-2.737 12.975" transform="translate(5 13.75)" />
        <path fill="#F6A11D" d="M29.534 76.087c-3.18 2.732-12.646 2.572-18.694-5.074C4.793 63.367 1.545 56.016.73 51.043c-.815-4.97-1.345-7.51.642-8.192 1.986-.682 3.43 5.857 4.357 8.13.928 2.274 2.929 5.604 3.392 5.415.818-.336-1.442-5.453-2.923-9.589s-2.45-10.07.017-11.925c2.465-1.855 5.02 7.533 6.292 10.99 1.22 3.321 2.335 7.346 2.868 6.814.442-.443.474-2.877-1.63-8.435-1.813-4.786-2.267-9.94.256-10.625 2.45-.666 4.177 7.307 6.218 10.86 5.664 9.856 11.01 13.502 12.052 18.626 1.042 5.123.908 9.841-2.737 12.975" transform="translate(5 13.75)" />
        <path fill="#FFF" d="M94.738 61.54L53.954 51.298c-.705 2.81-.898 5.608-.67 8.298l38.123 9.575c1.473-2.265 2.625-4.823 3.33-7.63" transform="translate(5 13.75)" />
        <path fill="#F60" d="M68.673 79.01c7.563 1.9 15.299-1.021 20.521-6.915.802-.905 1.538-1.886 2.213-2.925l-38.122-9.573c.103 1.233.288 2.446.568 3.623 1.818 7.662 7.256 13.89 14.82 15.79" transform="translate(5 13.75)" />
        <path fill="#FFC300" d="M28.484 76.802s8.39-4.603 4.454-16.621c-2.345-7.16 2.92-14.545-.85-14.702-5.69-.238-7.931 12.36-7.931 12.36s-1.953.917-2.685 5.934c-1.024 7.015 7.012 13.029 7.012 13.029M99.083 92.283c1.473 3.925 9.848 8.338 18.829 4.544 8.98-3.793 15.363-8.676 18.47-12.642 3.105-3.967 4.793-5.937 3.378-7.491-1.414-1.555-5.823 3.484-7.73 5.03-1.907 1.548-5.264 3.504-5.579 3.115-.555-.687 3.887-4.085 7.175-7 3.29-2.912 6.993-7.649 5.723-10.462-1.27-2.812-8.025 4.19-10.804 6.61-2.667 2.323-5.581 5.315-5.791 4.592-.176-.602.968-2.75 5.487-6.61 3.89-3.325 6.767-7.624 4.886-9.44-1.828-1.761-7.178 4.398-10.677 6.53-9.706 5.916-16.147 6.541-19.525 10.532-3.379 3.99-5.53 8.192-3.842 12.692" transform="translate(5 13.75)" />
        <path fill="#F6A11D" d="M99.083 92.283c1.473 3.925 9.848 8.338 18.829 4.544 8.98-3.793 15.363-8.676 18.47-12.642 3.105-3.967 4.793-5.937 3.378-7.491-1.414-1.555-5.823 3.484-7.73 5.03-1.907 1.548-5.264 3.504-5.579 3.115-.555-.687 3.887-4.085 7.175-7 3.29-2.912 6.993-7.649 5.723-10.462-1.27-2.812-8.025 4.19-10.804 6.61-2.667 2.323-5.581 5.315-5.791 4.592-.176-.602.968-2.75 5.487-6.61 3.89-3.325 6.767-7.624 4.886-9.44-1.828-1.761-7.178 4.398-10.677 6.53-9.706 5.916-16.147 6.541-19.525 10.532-3.379 3.99-5.53 8.192-3.842 12.692" transform="translate(5 13.75)" />
        <path fill="#FFC300" d="M99.659 93.414s-5.142-8.07 4.092-16.714c5.5-5.149 4.436-14.154 7.816-12.479 5.103 2.529 1.007 14.65 1.007 14.65s1.27 1.744-.5 6.495c-2.477 6.642-12.415 8.048-12.415 8.048" transform="translate(5 13.75)" />
        <path fill="#F60" d="M40.479 19.124c0 4.481-3.633 8.113-8.114 8.113-4.48 0-8.113-3.632-8.113-8.113 0-4.482 3.633-8.114 8.113-8.114 4.48 0 8.114 3.632 8.114 8.114M103.535 8.114c0 4.48-3.634 8.114-8.114 8.114s-8.114-3.634-8.114-8.114C87.307 3.633 90.941 0 95.421 0s8.114 3.633 8.114 8.114M125.78 47.955c0 4.481-3.633 8.114-8.114 8.114-4.48 0-8.114-3.633-8.114-8.114 0-4.481 3.634-8.114 8.114-8.114 4.481 0 8.113 3.633 8.113 8.114" transform="translate(5 13.75)" />
        <path fill="#004BB9" d="M83.46 42.976c.893-2.131 3.342-3.135 5.473-2.243 2.13.89 3.134 3.341 2.243 5.472-.892 2.13-3.342 3.135-5.472 2.243-2.131-.892-3.135-3.342-2.243-5.472M69.283 38.689c-.892-2.13-3.342-3.135-5.472-2.243-2.13.891-3.134 3.342-2.243 5.472.892 2.131 3.341 3.135 5.472 2.243 2.13-.89 3.135-3.341 2.243-5.472" transform="translate(5 13.75)" />
    </g>
</svg>