<svg xmlns="http://www.w3.org/2000/svg" width="150" height="150" viewBox="0 0 150 150">
    <g fill="none" fill-rule="evenodd">
        <path fill="#CED2ED" d="M107.791 123.768c0 2.04-14.615 3.694-32.646 3.694-18.03 0-32.645-1.654-32.645-3.694s14.615-3.694 32.645-3.694c18.031 0 32.646 1.654 32.646 3.694" />
        <path fill="#FFC300" d="M104.57 77.837c0 18.273-13.616 33.087-30.41 33.087-16.795 0-30.41-14.814-30.41-33.087 0-18.273 13.615-33.087 30.41-33.087 16.794 0 30.41 14.814 30.41 33.087" />
        <path fill="#F6A11D" d="M95.367 54.134c2.191 4.572 3.438 9.766 3.438 15.278 0 18.274-13.615 33.087-30.41 33.087-8.25 0-15.728-3.58-21.207-9.384 5.074 10.581 15.243 17.809 26.972 17.809 16.794 0 30.409-14.813 30.409-33.087 0-9.297-3.528-17.692-9.202-23.703" />
        <path fill="#004BB9" d="M67.41 72.807a4.081 4.081 0 1 1-8.162.002 4.081 4.081 0 0 1 8.162-.002M80.76 68.142a4.082 4.082 0 1 0 8.164-.002 4.082 4.082 0 0 0-8.163.002" />
        <path fill="#F60" d="M64.526 51.282a2.333 2.333 0 0 1 2.424 3.982l-.172.105-9.371 5.162a2.333 2.333 0 0 1-2.424-3.982l.172-.105 9.371-5.162zM80.623 52.2a2.333 2.333 0 0 1 2.989-1.008l.18.09 9.371 5.162a2.333 2.333 0 0 1-2.07 4.177l-.18-.09-9.372-5.162a2.333 2.333 0 0 1-.918-3.17z" />
        <path fill="#FFF" d="M85.184 86.295h-22.05c0 1.37.26 2.677.72 3.885h20.61c.46-1.208.72-2.515.72-3.885" />
        <path fill="#F60" d="M74.16 97.316c4.089 0 7.65-2.231 9.554-5.538.292-.508.541-1.043.751-1.598H63.854c.21.555.459 1.09.751 1.598 1.904 3.307 5.465 5.538 9.555 5.538" />
        <path fill="#FFC300" d="M111.931 100.357s-.585-9.003.37-11.307c.956-2.303-2.439-3.232-4.492-2.044-1.502.87-2.9 3.957-3.73 5.954-.828 1.997-.813 3.262-.813 3.262s-7.323-4.477-10.365-3.22c-3.042 1.259-8.168 11.013-6.345 15.73 1.824 4.717 16.567 10.832 21.565 8.766 4.997-2.068 4.907-11.106 3.81-17.141" />
        <path fill="#F6A11D" d="M111.835 98.432c-4.075 6.77-11.565 11.31-20.138 11.31-1.68 0-3.318-.177-4.898-.51 2.608 4.636 16.5 10.26 21.323 8.265 4.997-2.067 4.906-11.105 3.81-17.14 0 0-.05-.78-.097-1.925" />
    </g>
</svg>