<svg xmlns="http://www.w3.org/2000/svg" width="150" height="150" viewBox="0 0 150 150">
    <g fill="none" fill-rule="evenodd">
        <path fill="#CED2ED" d="M118.644 124.23c0 2.04-14.616 3.694-32.646 3.694s-32.648-1.653-32.648-3.693c0-2.041 14.618-3.694 32.648-3.694s32.646 1.652 32.646 3.694" />
        <path fill="#FFC300" d="M121.25 83.124c0 18.296-15.67 33.126-34.999 33.126-19.33 0-35.001-14.83-35.001-33.126C51.25 64.83 66.92 50 86.251 50c19.329 0 34.999 14.83 34.999 33.124" />
        <path fill="#F6A11D" d="M57.957 87.757c0-18.188 15.798-32.931 35.283-32.931 6.58 0 12.736 1.686 18.01 4.614C104.884 53.604 96.16 50 86.533 50 67.047 50 51.25 64.745 51.25 82.932c0 12.046 6.933 22.576 17.273 28.318-6.518-5.976-10.566-14.292-10.566-23.493" />
        <path fill="#004BB9" d="M95 74.375a4.375 4.375 0 1 0 8.75 0 4.375 4.375 0 0 0-8.75 0" />
        <path fill="#F60" d="M107.586 55c1.333 0 2.414 1.12 2.414 2.5 0 1.323-.993 2.406-2.25 2.494l-.164.006H92.414C91.081 60 90 58.88 90 57.5c0-1.323.993-2.406 2.25-2.494l.164-.006h15.172z" />
        <path fill="#004BB9" d="M78.75 74.375a4.375 4.375 0 1 1-8.75 0 4.375 4.375 0 0 1 8.75 0" />
        <path fill="#F60" d="M80.085 55c1.334 0 2.415 1.12 2.415 2.5 0 1.323-.993 2.406-2.25 2.494l-.165.006h-15.17c-1.334 0-2.415-1.12-2.415-2.5 0-1.323.993-2.406 2.25-2.494l.165-.006h15.17z" />
        <path fill="#FFF" d="M101.405 101.203a89.203 89.203 0 0 1-30.31 0c-4.077-.7-6.718-4.137-5.968-7.272l.443-1.97c.751-3.144 4.111-4.937 7.56-4.35a77.183 77.183 0 0 0 26.239 0c3.45-.588 6.81 1.206 7.56 4.35l.443 1.97c.752 3.135-1.89 6.571-5.967 7.272" />
        <path fill="#F60" d="M99.01 85.16a69.401 69.401 0 0 1-24.642.157l-.874-.157c-4.742-.874-9.316 1.912-10.354 6.614l-.451 2.173c-1.082 4.893 2.612 9.867 7.913 10.853a85.21 85.21 0 0 0 31.303 0c5.207-.97 8.864-5.787 7.957-10.627l-.492-2.37c-1.043-4.732-5.617-7.518-10.36-6.643zm5.681 7.707l.44 2.113c.454 2.051-1.329 4.452-4.08 4.964a80.56 80.56 0 0 1-29.596 0c-2.67-.497-4.429-2.773-4.122-4.755l.486-2.354c.424-1.92 2.377-3.163 4.602-2.855l.223.037a74.043 74.043 0 0 0 27.216 0c2.317-.428 4.387.833 4.831 2.85z" />
        <path fill="#F6A11D" d="M42.507 86.242c-4.812-.17-12.939-6.938-12.49-16.956.449-10.018 3.117-17.847 6.125-22.172 3.006-4.324 5.609-6.342 7.85-5.463 2.241.88-1.534 6.7-2.426 9.068-.891 2.367-3.263 7.125-2.718 7.307.964.32 3.423-6.11 5.224-10.27 1.803-4.162 5.395-9.322 8.931-8.99 3.534.33-2.288 11.523-3.765 15.025-1.42 3.364-2.43 4.873-1.568 4.845.719-.024 1.605-2.416 3.928-8.089 2-4.885 4.362-8.15 7.352-7.818 2.99.333-1.268 8.128-2.146 12.244-2.435 11.417.712 18.797-2.21 23.397-2.924 4.6-6.569 8.067-12.087 7.872" />
        <path fill="#FFC300" d="M40.532 86.042s11.311 2.474 17.159-9.641c3.484-7.216-2.472-18.678-5.724-16.005-3.101 2.55-.482 7.886-.482 7.886s-2.511-.696-7.131 2.654c-6.457 4.683-3.822 15.106-3.822 15.106" />
    </g>
</svg>