<svg xmlns="http://www.w3.org/2000/svg" width="150" height="150" viewBox="0 0 150 150">
    <g fill="none" fill-rule="evenodd">
        <path fill="#CED2ED" d="M107.395 124.23c0 2.04-14.617 3.694-32.646 3.694-18.03 0-32.647-1.653-32.647-3.693s14.617-3.694 32.647-3.694c18.029 0 32.646 1.654 32.646 3.694" />
        <path fill="#FFC300" d="M108.271 82.627c0 17.329-14.952 31.376-33.394 31.376-18.445 0-33.397-14.047-33.397-31.376 0-17.33 14.952-31.377 33.397-31.377 18.442 0 33.394 14.047 33.394 31.377" />
        <path fill="#F6A11D" d="M99.72 61.663c3.196 4.813 5.048 10.494 5.048 16.585 0 17.33-14.95 31.377-33.394 31.377-9.866 0-18.73-4.022-24.843-10.413 5.898 8.88 16.384 14.791 28.346 14.791 18.443 0 33.395-14.048 33.395-31.376 0-8.06-3.237-15.407-8.553-20.964" />
        <path fill="#004BB9" d="M82.591 75.189a4.03 4.03 0 1 0 8.06.002 4.03 4.03 0 0 0-8.06-.002" />
        <path fill="#F60" d="M95.594 67.664a2.304 2.304 0 0 1 .19 4.6l-.19.008H81.12a2.304 2.304 0 0 1-.19-4.6l.19-.008h14.475z" />
        <path fill="#004BB9" d="M67.162 75.189a4.03 4.03 0 1 1-8.06.002 4.03 4.03 0 0 1 8.06-.002" />
        <path fill="#F60" d="M68.633 67.664a2.304 2.304 0 0 1 .19 4.6l-.19.008H54.158a2.304 2.304 0 0 1-.189-4.6l.19-.008h14.474zM93.729 92.296l.27-.143a2.304 2.304 0 1 1 2.266 4.012c-1.144.646-3.2 1.568-6.062 2.476-4.72 1.497-10.02 2.394-15.788 2.394-5.781 0-10.924-.901-15.37-2.408-2.712-.92-4.617-1.858-5.664-2.525a2.304 2.304 0 0 1 2.304-3.986l.436.255c.197.11.475.258.835.436.999.492 2.19.989 3.568 1.456 3.983 1.35 8.63 2.164 13.89 2.164 5.273 0 10.108-.818 14.395-2.178a36.975 36.975 0 0 0 3.919-1.478l.576-.266c.167-.08.309-.15.425-.209z" />
        <path fill="#FFC300" d="M115.46 109.316s-4.16-7.878-4.228-10.34c-.07-2.461-3.504-1.928-4.874-.028-1.003 1.39-1.019 4.737-.96 6.87.06 2.134.583 3.27.583 3.27s-8.405-1.08-10.64 1.28c-2.234 2.362-2.918 13.222.629 16.737 3.546 3.515 19.304 3.077 22.973-.803 3.67-3.88-.058-11.988-3.483-16.986M34.997 109.316s4.16-7.878 4.229-10.34c.069-2.461 3.504-1.928 4.874-.028 1.003 1.39 1.018 4.737.96 6.87-.06 2.134-.584 3.27-.584 3.27s8.406-1.08 10.64 1.28c2.234 2.362 2.919 13.222-.628 16.737-3.546 3.515-19.304 3.077-22.973-.803-3.671-3.88.058-11.988 3.482-16.986" />
        <path fill="#F6A11D" d="M114.596 107.621c-.94 7.746-5.86 14.862-13.585 18.321a23.567 23.567 0 0 1-4.62 1.517c4.22 3.124 19.011 2.587 22.552-1.156 3.67-3.88-.058-11.99-3.483-16.986 0 0-.36-.683-.864-1.696M55.117 110.369c-.011-.012-.026-.02-.037-.03-2.256 8.012-10.463 13.96-20.27 13.96-1.581 0-3.115-.168-4.595-.46.227.928.64 1.767 1.3 2.464 3.67 3.879 19.426 4.317 22.973.802 3.547-3.515 2.862-14.374.629-16.736" />
    </g>
</svg>