<svg xmlns="http://www.w3.org/2000/svg" width="150" height="150" viewBox="0 0 150 150">
    <g fill="none" fill-rule="evenodd">
        <path fill="#FFC300" d="M27.937 62.207c0 18.366 14.937 33.255 33.363 33.255 18.425 0 33.363-14.889 33.363-33.255 0-18.367-14.938-33.255-33.363-33.255-18.426 0-33.363 14.888-33.363 33.255" transform="translate(27.5 13.75)" />
        <path fill="#F6A11D" d="M88.063 55.153c0-7.024-2.19-13.536-5.92-18.904 7.63 6.094 12.52 15.454 12.52 25.958 0 18.367-14.938 33.255-33.363 33.255-11.38 0-21.424-5.682-27.444-14.351 5.71 4.562 12.955 7.297 20.844 7.297 18.425 0 33.363-14.888 33.363-33.255" transform="translate(27.5 13.75)" />
        <path fill="#CED2ED" d="M79.968 110.493c0 2.183-15.648 3.954-34.95 3.954-19.304 0-34.952-1.77-34.952-3.954s15.648-3.955 34.951-3.955 34.951 1.771 34.951 3.955" transform="translate(27.5 13.75)" />
        <path fill="#FFF" d="M45.881 62.653l20.185-9.403c.647 1.39 1.027 2.826 1.177 4.248l-18.867 8.79c-.992-1.03-1.847-2.246-2.495-3.635" transform="translate(27.5 13.75)" />
        <path fill="#F60" d="M61.181 69.132c-3.742 1.744-8.057.999-11.363-1.544-.507-.39-.988-.829-1.443-1.3l18.869-8.79c.069.653.094 1.302.066 1.94-.18 4.168-2.385 7.95-6.129 9.694" transform="translate(27.5 13.75)" />
        <path fill="#004BB9" d="M43.86 45.662c-1.277-1.924-3.872-2.448-5.797-1.17-1.924 1.277-2.448 3.873-1.17 5.797 1.279 1.924 3.873 2.448 5.798 1.17 1.924-1.279 2.447-3.874 1.17-5.797M62.342 36.032c-1.279-1.924-3.873-2.448-5.798-1.17-1.924 1.278-2.447 3.874-1.17 5.797 1.278 1.924 3.873 2.448 5.798 1.17 1.924-1.278 2.448-3.873 1.17-5.797" transform="translate(27.5 13.75)" />
        <path fill="#F60" d="M1.105 38.532c.6.173-.388 1.118 1.86 4.016 1.371 1.769 6.047 3.353 8.746 6.969 2.726 3.65 3.482 7.301.025 9.005-4.04 1.991-8.185-2.88-10.294-7.102s-1.623-13.258-.337-12.888" transform="translate(27.5 13.75)" />
        <path fill="#004BB9" d="M41.474 95.895c-1.966 1.46-25.575-23.15-34.349-37.757l6.65-4.935c11.933 12.261 29.582 41.294 27.699 42.692" transform="translate(27.5 13.75)" />
        <path fill="#FFC300" d="M10.723 79.612s-2.529-9.597-4.33-11.666c-1.799-2.07 1.42-4.223 3.975-3.7 1.871.383 4.408 3.117 5.967 4.91 1.561 1.795 1.986 3.121 1.986 3.121s6.08-7.225 9.691-6.974c3.612.252 12.362 8.64 12.105 14.196-.258 5.557-13.506 17.08-19.44 16.666-5.937-.414-8.993-9.875-9.954-16.553" transform="translate(27.5 13.75)" />
        <path fill="#F6A11D" d="M26.486 69.016c-.5-.926-1.058-1.803-1.655-2.637 1.127-.691 2.238-1.142 3.181-1.075 3.612.25 12.362 8.64 12.106 14.195-.21 4.478-8.849 12.824-15.304 15.683 5.344-7.438 6.322-17.57 1.672-26.166" transform="translate(27.5 13.75)" />
        <path fill="#F60" d="M38.384.431c4.389 1.758 5.864 8.382 3.294 14.796-.252.63-.535 1.236-.842 1.813 2.777 2.152 4.182 4.908 3.306 7.094-1.222 3.052-6.424 3.84-11.62 1.759-1.984-.794-3.679-1.892-4.95-3.114-.12-.095-.237-.196-.35-.3.924 2.771 1.28 4.81.799 5.009-.49.203-1.707-1.545-3.038-4.225-.008.198-.024.396-.05.592-.066 1.76-.523 3.723-1.395 5.669-2.29 5.107-6.58 8.156-9.58 6.81-2.149-.964-3.053-3.922-2.551-7.4-.622-.2-1.246-.44-1.865-.718C3.238 25.39-.304 19.6 1.63 15.286c1.934-4.313 8.613-5.518 14.918-2.69 2.34 1.05 4.298 2.507 5.738 4.145-.94-2.807-1.307-4.876-.82-5.078.494-.204 1.733 1.585 3.082 4.318-.13-2.217.263-4.684 1.238-7.12 2.57-6.413 8.21-10.187 12.598-8.43z" transform="translate(27.5 13.75)" />
    </g>
</svg>