<svg xmlns="http://www.w3.org/2000/svg" width="150" height="150" viewBox="0 0 150 150">
    <g fill="none" fill-rule="evenodd">
        <path fill="#CED2ED" d="M107.163 124.284c0 2.04-14.616 3.692-32.646 3.692s-32.647-1.653-32.647-3.692c0-2.04 14.617-3.693 32.647-3.693 18.03 0 32.647 1.652 32.647 3.693" />
        <path fill="#FFC300" d="M107.782 101.498c0 17.153-4.958 25.62-34.298 25.62-28.929 0-32.234-8.053-32.234-25.21C41.25 84.757 55.454 65 73.484 65c18.029 0 34.299 19.343 34.299 36.498" />
        <path fill="#F6A11D" d="M49.096 86.755c0-3.685 1.009-7.274 2.264-10.559C44.562 83.384 40 93.371 40 102.558c0 16.973 3.367 24.942 32.829 24.942 26.252 0 33.338-6.47 34.671-19.55-6.148 6.228-14.966 10.133-24.766 10.133-18.578 0-33.638-14.026-33.638-31.328z" />
        <path fill="#F60" d="M90.525 103.05a2.397 2.397 0 0 1 2.048 4.33l-.178.083c-.276.117-.553.398-1.668 1.85l-1.21 1.596c-2.783 3.69-4.753 5.384-7.746 5.302-2.145-.06-3.302-1.018-5.182-3.522l-.92-1.248c-.77-1.03-1.244-1.553-1.531-1.755l-.078-.049-.025.023-.201.144c-.416.316-.868.805-1.942 2.066l-.209.245c-2.578 3.038-3.978 4.21-6.373 4.21-2.213 0-3.563-1.05-5.151-3.224l-.882-1.254c-.972-1.383-1.598-2.019-2.285-2.286l-.139-.049a2.397 2.397 0 1 1 1.442-4.572c1.933.61 3.166 1.743 4.653 3.799l.904 1.287.295.407c.64.858.953 1.097 1.163 1.097.33 0 1.086-.619 2.51-2.273L68.896 108c1.077-1.24 1.58-1.717 2.403-2.275 1.071-.727 2.219-1.073 3.45-.86 1.894.326 2.912 1.231 4.67 3.582l.918 1.248c.962 1.28 1.435 1.72 1.566 1.724.74.02 1.77-.812 3.359-2.84l.58-.761.866-1.159a30.69 30.69 0 0 1 1.06-1.344c.936-1.11 1.766-1.846 2.757-2.266z" />
        <path fill="#004BB9" d="M69.918 90.273a4.193 4.193 0 0 1-4.194 4.193 4.192 4.192 0 1 1 0-8.385 4.193 4.193 0 0 1 4.194 4.192" />
        <path fill="#F60" d="M65.377 81.814a2.397 2.397 0 0 1 4.716.856c-.22 1.215-.765 2.902-1.807 4.622-.831 1.373-1.873 2.537-3.162 3.404C61.69 93.01 58.309 93.534 55.46 93a6.687 6.687 0 0 1-.896-.223 2.397 2.397 0 0 1 1.368-4.591l.214.062c.037.008.104.023.198.04 1.683.317 3.79-.01 6.101-1.567.665-.447 1.247-1.097 1.74-1.91.4-.662.716-1.387.95-2.114l.104-.338c.06-.204.1-.366.123-.474l.014-.07z" />
        <path fill="#004BB9" d="M79.117 90.273a4.191 4.191 0 0 0 4.192 4.193 4.192 4.192 0 1 0 0-8.385 4.191 4.191 0 0 0-4.192 4.192" />
        <path fill="#F60" d="M80.87 79.884a2.397 2.397 0 0 1 2.746 1.747l.075.344c.04.167.106.415.205.72.235.728.551 1.453.951 2.114.493.814 1.075 1.464 1.74 1.911 2.2 1.482 4.217 1.85 5.859 1.609l.243-.041c.157-.03.238-.051.233-.05a2.397 2.397 0 0 1 1.547 4.538 6.69 6.69 0 0 1-.896.223c-2.849.535-6.23.01-9.663-2.302-1.29-.868-2.332-2.032-3.163-3.405-1.042-1.72-1.587-3.407-1.807-4.622a2.397 2.397 0 0 1 1.93-2.786z" />
    </g>
</svg>