<svg xmlns="http://www.w3.org/2000/svg" width="150" height="150" viewBox="0 0 150 150">
    <g fill="none" fill-rule="evenodd">
        <path fill="#FFC300" d="M1.121 53.688c4.731 19.61 23.087 32.004 41 27.683 17.912-4.322 28.597-23.723 23.865-43.334-4.732-19.611-23.088-32.005-41-27.683C7.074 14.676-3.611 34.077 1.12 53.688" transform="translate(13.75 23.75)" />
        <path fill="#004BB9" d="M33.544 31.067c1.542 1.933 1.227 4.75-.706 6.293-1.932 1.544-4.75 1.227-6.292-.706-1.544-1.933-1.228-4.75.705-6.293 1.933-1.542 4.751-1.227 6.293.706" transform="translate(13.75 23.75)" />
        <path fill="#F6A11D" d="M47.754 70.103c-17.911 4.322-36.268-8.073-41-27.683-1.689-6.999-1.404-13.967.462-20.237C.92 30.559-1.678 42.085 1.12 53.688c4.73 19.61 23.087 32.005 41 27.683 11.52-2.78 20.04-11.799 23.402-23.097-4.346 5.783-10.454 10.065-17.769 11.83" transform="translate(13.75 23.75)" />
        <path fill="#004BB9" d="M51.458 84.966S66.13 40.494 90.825 16.001C104.13 2.804 117.128-.8 117.923.14c.886 1.045-7.893-.967-25.979 18.702-20.89 22.72-34.975 66.469-36.628 69.926-2.384 4.982-5.758.4-3.858-3.803" transform="translate(13.75 23.75)" />
        <path fill="#FFC300" d="M84.816 61.948s9.03-3.913 6.168-20.363c-1.09-6.273-8.852-17.724-11.611-16.006-2.759 1.718-1.776 5.945-1.776 5.945s-1.494.134-3.756 2.908c-2.26 2.776-4.494 9.22-4.714 13.464-.22 4.243 1.155 8 3.32 10.578 2.673 3.182 7.649 5.89 12.369 3.474" transform="translate(13.75 23.75)" />
        <path fill="#F60" d="M22.03 16.182c.802-.85 2.141-.89 2.992-.089.8.754.883 1.985.221 2.836l-.132.155-8.049 8.544c-.801.85-2.14.89-2.99.089-.801-.754-.884-1.985-.223-2.836l.133-.155 8.049-8.544zM40.35 12.117c.212-1.087 1.22-1.817 2.3-1.701l.181.027 11.523 2.236c1.147.223 1.896 1.333 1.674 2.48-.211 1.087-1.22 1.817-2.3 1.701l-.18-.027-11.523-2.236c-1.147-.223-1.897-1.333-1.674-2.48z" transform="translate(13.75 23.75)" />
        <path fill="#004BB9" d="M48.224 29.454c1.543 1.933 4.36 2.249 6.294.706 1.932-1.543 2.248-4.36.705-6.293-1.543-1.932-4.36-2.248-6.292-.706-1.933 1.543-2.249 4.36-.707 6.293M24.975 69.279c6.792 3.388 14.553 2.631 20.454-1.284.906-.6 1.762-1.284 2.571-2.03L13.77 48.893c-.107 1.095-.138 2.19-.073 3.276.422 7.068 4.487 13.724 11.278 17.11" transform="translate(13.75 23.75)" />
        <path fill="#F60" d="M12.633 62.42C9.018 66.7 9.556 73.1 13.835 76.715c4.279 3.616 10.68 3.078 14.295-1.201l13.922-16.476-18.322-9.75L12.633 62.42z" transform="translate(13.75 23.75)" />
        <path fill="#FFF" d="M52.413 60.109L15.795 41.844c-1.134 2.276-1.785 4.661-2.024 7.05L48 65.964c1.764-1.626 3.278-3.581 4.413-5.856" transform="translate(13.75 23.75)" />
        <path fill="#F6A11D" d="M69.735 43.991c-.328 1.387-.547 2.73-.609 3.905-.22 4.244 1.156 8 3.321 10.578 2.673 3.182 7.649 5.89 12.369 3.474 0 0 4.9-2.132 6.336-9.836-2.208 1.423-4.725 2.236-7.399 2.236-6.106 0-11.392-4.209-14.018-10.357" transform="translate(13.75 23.75)" />
        <path fill="#CED2ED" d="M.77 99.856c0 2.178 15.608 3.943 34.86 3.943 19.253 0 34.861-1.765 34.861-3.943s-15.608-3.944-34.861-3.944c-19.252 0-34.86 1.766-34.86 3.944" transform="translate(13.75 23.75)" />
        <path fill="#004BB9" d="M88.498 72.515c0 8.312-6.738 15.048-15.048 15.048-8.31 0-15.048-6.736-15.048-15.048 0-8.31 6.737-15.048 15.048-15.048 8.31 0 15.048 6.738 15.048 15.048" transform="translate(13.75 23.75)" />
        <path fill="#FFC300" d="M48.21 77.88s4.453-7.174 12.072-10.729c3.657-1.707 5.608-2.56 8.032-1.797 2.66.837 1.187 4.602 1.187 4.602-1.303 1.067 3.858-3.868 7.822.502 6.726 7.415 2.726 15.969-5.662 21.703-7.862 5.377-13.267 5.67-18.448 1.567-3.765-2.98-8.174-9.751-5.004-15.847" transform="translate(13.75 23.75)" />
        <path fill="#004BB9" d="M117.78.11c.147 0 .27.103.303.241l.009.072v43.111c0 .173-.14.313-.313.313-.148 0-.272-.103-.304-.241l-.008-.072V.423c0-.173.14-.313.312-.313z" transform="translate(13.75 23.75)" />
        <path fill="#004BB9" d="M122.26 51.307c0-3.744-1.634-7.104-4.225-9.414-.143-.128-.369-.128-.513 0-2.59 2.31-4.223 5.67-4.223 9.414 0 3.253 1.234 6.214 3.255 8.45.128.141.128.347 0 .488-1.183 1.309-2.099 2.864-2.653 4.583-.108.34.27.635.563.431.91-.635 1.972-1.214 3.158-1.722.098-.043.216-.043.314 0 1.185.508 2.246 1.087 3.158 1.722.293.204.672-.09.562-.43-.554-1.72-1.47-3.275-2.652-4.584-.128-.141-.127-.347 0-.488 2.021-2.236 3.256-5.197 3.256-8.45" transform="translate(13.75 23.75)" />
        <path fill="#F6A11D" d="M47.291 84.133c.674 3.994 3.432 7.625 5.921 9.596 5.182 4.102 10.587 3.808 18.45-1.569 3.222-2.203 5.794-4.823 7.362-7.636C74.605 87.405 69.24 89.1 63.45 89.1c-6.048 0-11.635-1.847-16.16-4.966" transform="translate(13.75 23.75)" />
        <path fill="#FFC300" d="M69.502 69.957l.003-.007c-.251.18-.287.239-.003.007" transform="translate(13.75 23.75)" />
    </g>
</svg>